PathFileType  4	(X/Y/Z) C:\Users\antoi\Documents\MyRepositories\mobilecap\ResultsAnalysis
DataRate	CameraRate	NumFrames	NumMarkers	Units	OrigDataRate	OrigDataStartFrame	OrigNumFrames
100.0	100.0	4	51	mm	100.0	338	901
Frame#	Time	r_knee			r_shank_antsup			r_ankle			r_calc			r_5meta			r_toe			L_knee			L_shank_antsup			L_ankle			L_calc			L_5meta			L_toe			r_sh2			r_sh3			r_sh4			L_sh2			L_sh3			r_thigh1			r_thigh2			r_thigh3			r_thigh4			r_thigh5			L_thigh1			L_thigh2			L_thigh3			L_thigh4			r.ASIS			r.PSIS			L.ASIS			L.PSIS			C7			R_Shoulder			L_Shoulder			R_Sternum			L_Sternum			R_humerus			R_elbow_med			R_elbow_lat			R_forearm			R_wrist_radius			R_wrist_ulna			L_humerus			L_elbow_med			L_elbow_lat			L_forearm			L_wrist_radius			L_wrist_ulna			R_HJC			L_HJC			R_HJC_reg			L_HJC_reg			
		X1	Y1	Z1	X2	Y2	Z2	X3	Y3	Z3	X4	Y4	Z4	X5	Y5	Z5	X6	Y6	Z6	X7	Y7	Z7	X8	Y8	Z8	X9	Y9	Z9	X10	Y10	Z10	X11	Y11	Z11	X12	Y12	Z12	X13	Y13	Z13	X14	Y14	Z14	X15	Y15	Z15	X16	Y16	Z16	X17	Y17	Z17	X18	Y18	Z18	X19	Y19	Z19	X20	Y20	Z20	X21	Y21	Z21	X22	Y22	Z22	X23	Y23	Z23	X24	Y24	Z24	X25	Y25	Z25	X26	Y26	Z26	X27	Y27	Z27	X28	Y28	Z28	X29	Y29	Z29	X30	Y30	Z30	X31	Y31	Z31	X32	Y32	Z32	X33	Y33	Z33	X34	Y34	Z34	X35	Y35	Z35	X36	Y36	Z36	X37	Y37	Z37	X38	Y38	Z38	X39	Y39	Z39	X40	Y40	Z40	X41	Y41	Z41	X42	Y42	Z42	X43	Y43	Z43	X44	Y44	Z44	X45	Y45	Z45	X46	Y46	Z46	X47	Y47	Z47	X48	Y48	Z48	X49	Y49	Z49	X50	Y50	Z50	X51	Y51	Z51	

338	3.37000000	-245.83642	612.69123	-384.37066	-224.00336	467.21764	-361.90052	-298.15980	106.42780	-307.08751	-358.02680	72.44666	-365.28954	-162.96307	44.47170	-274.43798	-125.82236	72.69036	-325.58217	-271.46377	610.70625	-877.51864	-235.66274	408.90042	-892.31375	-340.56143	115.53439	-932.16394	-395.65671	74.73501	-872.30545	-198.47353	33.20852	-971.15864	-156.51108	66.81008	-914.87097	-234.06823	353.26419	-348.33800	-291.70952	474.20832	-331.07285	-302.95787	364.86638	-306.97683	-310.45970	432.11718	-935.62386	-331.01326	314.17496	-935.04839	-235.82885	907.81663	-400.17219	-213.56543	799.42159	-384.56367	-272.88204	764.77585	-378.93582	-339.63110	883.91481	-436.36440	-320.87365	769.53263	-408.33656	-212.95471	908.02841	-848.54995	-212.08949	773.94776	-863.97991	-322.67573	910.21702	-844.78492	-319.38255	774.50932	-871.73145	-207.53507	1178.04871	-493.09516	-391.93761	1191.29547	-585.38741	-204.51397	1169.65353	-765.66546	-388.68270	1194.73139	-676.38918	-314.43153	1683.41456	-621.91094	-224.63976	1636.29173	-446.32641	-236.30323	1663.56804	-796.81539	-163.44821	1605.18163	-596.14634	-163.74179	1607.81371	-645.51312	-250.00005	1374.04432	-361.07700	-349.41184	1251.67489	-381.62694	-318.26152	1281.14696	-305.41465	-129.88312	1300.04691	-400.34505	-55.38047	1314.61642	-446.22430	-48.43577	1280.57852	-431.95901	-218.03181	1378.50088	-864.48975	-318.29852	1287.80332	-857.39609	-254.98209	1295.09746	-912.53188	-93.73385	1310.34340	-787.08737	-48.06654	1325.56967	-730.80119	-36.98993	1297.92489	-748.70725	-276.09203	1075.94351	-529.45078	-279.36302	1074.56859	-726.89518	-268.57170	1080.55960	-537.71088	-262.14314	1087.34656	-717.46082	
339	3.38000000	-245.67071	612.69687	-384.77667	-223.98591	467.10787	-362.19874	-298.20757	106.38484	-307.05685	-358.01151	72.44493	-365.22664	-162.98776	44.36813	-274.30730	-125.79185	72.68962	-325.28007	-270.09726	610.59945	-878.11723	-234.78780	408.61582	-892.50137	-340.48047	115.45892	-932.06824	-395.64566	74.74077	-872.25428	-198.45515	33.23092	-971.15874	-156.49239	66.76902	-914.84363	-234.09400	353.22993	-348.40625	-291.08792	474.64690	-330.78217	-303.28597	365.41020	-306.97752	-309.52382	431.97815	-935.89332	-330.24662	314.16958	-935.42607	-234.95202	907.72309	-401.20167	-212.84732	799.41414	-385.65226	-272.06050	764.86860	-379.73321	-338.63553	883.93089	-437.53815	-320.10553	769.64249	-409.17808	-210.87115	907.85736	-849.15484	-210.12980	773.75942	-864.44111	-320.72066	910.24563	-846.21198	-317.37809	774.51021	-872.83579	-206.63508	1178.24780	-493.95882	-391.11404	1190.43546	-586.35979	-203.48874	1169.99684	-766.79785	-387.83760	1193.92606	-677.57046	-316.32123	1683.07157	-623.78958	-226.24836	1636.31031	-448.12420	-238.00495	1663.61112	-798.60114	-164.80897	1605.59094	-598.00578	-165.12916	1608.23703	-647.37990	-253.00036	1374.14052	-363.04031	-353.24560	1252.27320	-383.98466	-322.16035	1281.69711	-307.69079	-133.20804	1299.32038	-402.19718	-58.29223	1313.57361	-447.83477	-51.74795	1279.25552	-433.69742	-219.39814	1378.57553	-866.77569	-319.89558	1288.02590	-860.35031	-256.39632	1295.29799	-915.11025	-95.41850	1309.57371	-789.35406	-49.86518	1324.45161	-732.75308	-38.91756	1296.64377	-750.46126	-274.58618	1075.75159	-530.52962	-277.77676	1074.44708	-727.97563	-267.10162	1080.35244	-538.67711	-260.63913	1087.23808	-718.59753	
340	3.39000000	-245.57001	612.76260	-384.98950	-223.95743	467.04293	-362.49534	-298.23163	106.35028	-307.02323	-357.99714	72.45420	-365.15159	-162.99531	44.23986	-274.09948	-125.77765	72.62805	-325.06552	-268.75090	610.46564	-878.69742	-233.94001	408.37068	-892.77599	-340.39489	115.36989	-931.93656	-395.63307	74.74934	-872.17960	-198.43885	33.26881	-971.16361	-156.46377	66.72492	-914.81310	-234.04794	353.23471	-348.48101	-289.95344	475.26746	-330.11680	-303.53849	366.18603	-306.85602	-308.54490	431.86030	-936.31741	-329.49414	314.16868	-935.83545	-234.10687	907.67230	-402.33146	-212.25087	799.47033	-386.53382	-271.43903	764.98559	-380.44367	-337.86160	883.99464	-438.53309	-319.46602	769.74647	-409.85076	-209.03827	907.70351	-849.74247	-208.33641	773.72543	-865.05245	-318.97927	910.18455	-847.46458	-315.58799	774.39614	-873.76368	-205.73640	1178.46689	-495.02714	-390.40030	1189.66470	-587.32840	-202.48701	1170.34497	-767.96163	-387.18923	1193.19634	-678.60047	-317.99538	1682.76856	-625.50771	-227.62940	1636.42822	-449.81755	-239.58012	1663.57698	-800.30650	-166.09649	1605.90631	-599.68737	-166.38869	1608.59472	-649.14851	-255.65164	1374.21521	-364.93136	-356.68326	1252.87878	-386.24917	-325.40405	1282.10453	-309.98937	-136.10580	1298.46599	-403.94965	-60.87487	1312.36787	-449.48941	-54.64425	1277.81096	-435.37474	-220.56995	1378.59457	-868.96116	-321.23502	1288.10987	-862.93891	-257.57134	1295.42849	-917.55385	-96.79570	1308.65662	-791.35390	-51.37483	1323.27326	-734.59775	-40.52756	1295.36666	-752.20473	-273.13844	1075.60623	-531.63771	-276.36035	1074.36776	-729.08376	-265.63060	1080.24840	-539.75503	-259.29857	1087.21263	-719.73817	
341	3.40000000	-245.52301	612.78570	-385.31595	-223.88587	467.03515	-362.75935	-298.21484	106.34523	-306.97257	-357.99379	72.46830	-365.08513	-162.97419	44.13621	-273.90655	-125.77752	72.54163	-324.99622	-267.42697	610.30787	-879.28380	-233.06937	408.17706	-893.12091	-340.29818	115.32502	-931.86328	-395.62097	74.76294	-872.12968	-198.43173	33.33506	-971.16753	-156.42266	66.67902	-914.74781	-233.95961	353.30474	-348.67327	-289.21665	475.56009	-329.88929	-303.49029	366.53560	-306.77030	-307.54981	431.64222	-936.67420	-328.76045	314.10282	-936.04530	-233.54475	907.45850	-403.35100	-211.82180	799.43245	-387.21950	-271.08907	765.12607	-380.98047	-337.33798	884.13333	-439.25565	-319.07882	769.87664	-410.39389	-207.52232	907.69190	-850.47883	-206.76102	773.74997	-865.74314	-317.46120	910.20242	-848.74733	-314.05052	774.23876	-874.54330	-205.03556	1178.59185	-496.46286	-389.79796	1188.97769	-588.55838	-201.57108	1170.36794	-769.05476	-386.68075	1192.49905	-679.63182	-319.44563	1682.52316	-627.14143	-228.87005	1636.59326	-451.30113	-241.01326	1663.49374	-801.97138	-167.26374	1606.16471	-601.21605	-167.53604	1608.90533	-650.80913	-257.96361	1374.25503	-366.73303	-359.43676	1253.36720	-388.50485	-328.10734	1282.45826	-312.20237	-138.56026	1297.51748	-405.65618	-63.18474	1310.83264	-450.99589	-57.16896	1276.34706	-436.92247	-221.52125	1378.55463	-871.04803	-322.33373	1288.10471	-865.35271	-258.49336	1295.51510	-919.90487	-97.94185	1307.69317	-793.14874	-52.58708	1322.03944	-736.33550	-41.78935	1294.17887	-754.03510	-271.99384	1075.43542	-532.79545	-275.22191	1074.10831	-730.24093	-264.38180	1080.18239	-541.06209	-258.22872	1087.13320	-720.82968	
